<svg xmlns="http://www.w3.org/2000/svg" width="497" height="388" viewBox="0 0 497 388" fill="none"><g clip-path="url(#clip0_98_1196)"><path d="M23.4912 204.124L154.646 73.1145C163.682 64.0884 175.721 59.1117 188.537 59.1117C201.352 59.1117 213.391 64.0812 222.428 73.1145L281.688 132.306C284.437 135.051 288.092 136.558 291.986 136.558C295.881 136.558 299.543 135.044 302.285 132.306L385.522 49.1656L362.677 26.3468L457.315 1.02148L431.96 95.5494L409.114 72.7306L325.877 155.871C316.826 164.911 304.787 169.895 291.986 169.895C279.186 169.895 267.147 164.919 258.095 155.871L198.835 96.6795C196.086 93.934 192.431 92.4272 188.537 92.4272C184.642 92.4272 180.979 93.9413 178.238 96.6795L47.0836 227.681L23.4912 204.116V204.124Z" fill="#EEBA7C"></path><path d="M456.285 2.05007L431.583 94.1513L409.115 71.7091L325.363 155.364C316.449 164.267 304.591 169.171 291.987 169.171C279.382 169.171 267.524 164.267 258.61 155.364L199.35 96.1724C196.369 93.1951 192.453 91.7028 188.537 91.7028C184.62 91.7028 180.704 93.1951 177.723 96.1724L47.0765 226.66L24.514 204.124L155.161 73.6288C164.364 64.4361 176.454 59.8433 188.537 59.8433C200.619 59.8433 212.709 64.4361 221.913 73.6288L281.173 132.82C284.154 135.797 288.07 137.29 291.987 137.29C295.903 137.29 299.819 135.797 302.8 132.82L386.552 49.1656L364.076 26.7234L456.285 2.05007ZM458.337 0L455.908 0.651967L363.699 25.3253L361.27 25.9773L363.047 27.7521L384.492 49.1728L301.77 131.799C299.159 134.407 295.685 135.841 291.979 135.841C288.273 135.841 284.799 134.407 282.188 131.799L222.928 72.6074C213.754 63.4436 201.533 58.3945 188.522 58.3945C175.511 58.3945 163.291 63.4436 154.116 72.6074L23.4914 203.095L22.4688 204.116L23.4914 205.138L46.0539 227.674L47.0765 228.696L48.0991 227.674L178.746 97.1865C181.357 94.5787 184.831 93.1443 188.537 93.1443C192.243 93.1443 195.717 94.5787 198.328 97.1865L257.588 156.378C266.777 165.556 278.997 170.613 291.994 170.613C304.99 170.613 317.211 165.556 326.4 156.378L409.122 73.752L430.567 95.1727L432.344 96.9475L432.997 94.5207L457.685 2.42677L458.337 0Z" fill="#231F20"></path><path d="M463.13 306.229C463.13 306.229 452.389 328.374 448.56 329.359C444.731 330.345 454.043 308.634 454.043 308.634C446.406 308.88 428.376 320.594 428.376 320.594C428.376 320.594 432.677 344.253 428.717 344.275C424.765 344.289 425.983 323.129 425.983 323.129C418.963 326.259 413.255 335.647 413.255 335.647C406.532 350.599 426.099 358.452 426.099 358.452L430.451 365.304C434.802 372.157 451.991 371.172 461.23 368.006C470.47 364.841 465.988 362.697 460.316 359.017C454.645 355.337 444.085 357.865 440.706 356.568C437.319 355.271 441.728 352.975 448.118 352.649C454.507 352.316 458.489 358.227 468.831 357.879C479.173 357.532 484.482 337.328 484.482 337.328C477.708 340.428 464.552 338.168 463.754 335.799C462.956 333.43 481.719 331.257 484.547 330.149C487.376 329.041 491.727 322.55 487.056 311.293C482.386 300.035 463.145 306.222 463.145 306.222L463.13 306.229Z" fill="#65ADA3" stroke="#231F20" stroke-miterlimit="10"></path><path d="M426.099 358.451C426.099 358.451 427.412 366.681 423.524 376.822L423.996 380.466C423.996 380.466 427.745 367.383 430.443 365.304C430.443 365.304 416.932 350.736 478.506 316.103C478.506 316.103 429.544 339.226 426.092 358.451H426.099Z" fill="#DEEDEB"></path><path d="M64.583 333.083L16.2305 378.409H448.096L399.743 333.083H64.583Z" fill="#65ADA3" stroke="#231F20" stroke-miterlimit="10"></path><path d="M448.096 378.409H16.2305V387.993H448.096V378.409Z" fill="#231F20"></path><path d="M381.822 100.838H241.675C231.357 100.838 222.992 109.192 222.992 119.498V324.651C222.992 334.957 231.357 343.311 241.675 343.311H381.822C392.14 343.311 400.505 334.957 400.505 324.651V119.498C400.505 109.192 392.14 100.838 381.822 100.838Z" fill="#231F20"></path><path d="M377.862 107.379H245.635C237.307 107.379 230.557 114.122 230.557 122.44V321.565C230.557 329.882 237.307 336.625 245.635 336.625H377.862C386.19 336.625 392.94 329.882 392.94 321.565V122.44C392.94 114.122 386.19 107.379 377.862 107.379Z" fill="white"></path><path d="M329.445 94.7961H294.045C293.595 94.7961 293.226 95.593 293.226 96.5854V112.928H303.575C304.467 112.928 305.279 113.442 305.664 114.246L306.556 116.108C306.686 116.383 307.129 116.891 307.433 116.891H316.049C316.361 116.891 316.796 116.383 316.927 116.108L317.819 114.246C318.203 113.442 319.016 112.928 319.908 112.928H330.257V96.5854C330.257 95.6002 329.894 94.7961 329.437 94.7961H329.445Z" fill="#231F20"></path><path d="M318.073 101.693C316.796 95.89 315.796 89.1748 315.796 86.4075C315.796 85.3064 317.094 83.7345 318.24 82.3364C319.487 80.8224 320.56 79.5184 320.56 78.3304C320.56 75.9254 316.709 73.1292 311.749 73.1292C306.788 73.1292 302.937 75.9254 302.937 78.3304C302.937 79.5184 304.01 80.8224 305.258 82.3364C306.404 83.7272 307.702 85.3064 307.702 86.4075C307.702 89.1748 306.701 95.89 305.424 101.693C303.517 110.342 301.987 112.921 301.457 113.073H299.071V114.536H301.457C302.168 114.536 304.054 114.536 306.773 102.381C308.115 96.3754 309.167 89.3631 309.167 86.4148C309.167 84.7921 307.753 83.0753 306.389 81.4164C305.461 80.2863 304.402 79.0041 304.402 78.3449C304.402 76.8743 307.557 74.6069 311.749 74.6069C315.941 74.6069 319.095 76.8743 319.095 78.3449C319.095 79.0041 318.037 80.2863 317.108 81.4164C315.745 83.0753 314.331 84.7921 314.331 86.4148C314.331 89.3631 315.382 96.3754 316.724 102.381C319.444 114.536 321.329 114.536 322.04 114.536H324.426V113.073H322.062C321.518 112.921 319.98 110.342 318.073 101.693Z" fill="white" stroke="#231F20" stroke-miterlimit="10"></path><path d="M301.986 112.624C301.841 112.298 301.522 112.088 301.167 112.088H293.233C293.037 112.088 293.008 113.16 293.008 114.486C293.008 115.811 293.037 116.883 293.233 116.883H301.573C301.856 116.883 302.124 116.746 302.291 116.521L302.922 115.666C303.074 115.464 303.103 115.188 303.002 114.957L301.979 112.617L301.986 112.624Z" fill="#231F20"></path><path d="M330.264 112.088H322.33C321.974 112.088 321.655 112.298 321.51 112.624L320.487 114.964C320.386 115.196 320.415 115.471 320.567 115.674L321.198 116.529C321.365 116.753 321.633 116.891 321.916 116.891H330.257C330.452 116.891 330.481 115.819 330.481 114.493C330.481 113.167 330.452 112.095 330.257 112.095L330.264 112.088Z" fill="#231F20"></path><path d="M315.179 116.108L314.41 114.493C314.207 114.073 313.779 113.798 313.308 113.798H310.189C309.718 113.798 309.29 114.066 309.087 114.493L308.318 116.108C308.187 116.384 307.745 116.891 307.44 116.891H316.056C315.752 116.891 315.309 116.384 315.179 116.108Z" fill="#231F20"></path><path d="M343.181 153.864H259.625V154.944H343.181V153.864Z" fill="#231F20"></path><path d="M268.799 133.747C267.972 133.45 267.124 133.298 266.232 133.298C265.34 133.298 264.477 133.458 263.621 133.769C262.424 134.197 261.474 134.892 260.778 135.863C259.893 137.087 259.443 138.702 259.443 140.702C259.443 142.701 259.893 144.346 260.792 145.599C261.489 146.548 262.439 147.25 263.635 147.692C264.462 147.989 265.325 148.141 266.232 148.141C267.138 148.141 267.951 147.982 268.799 147.671C269.996 147.221 270.946 146.519 271.642 145.555C272.527 144.309 272.977 142.694 272.977 140.695C272.977 138.695 272.534 137.058 271.642 135.834C270.946 134.878 269.996 134.182 268.799 133.74V133.747ZM268.719 144.65C268.052 145.309 267.218 145.635 266.232 145.635C265.245 145.635 264.368 145.309 263.693 144.65C262.816 143.788 262.381 142.469 262.381 140.702C262.381 138.934 262.823 137.645 263.715 136.783C264.397 136.131 265.238 135.805 266.232 135.805C267.225 135.805 268.052 136.131 268.719 136.783C269.597 137.63 270.032 138.941 270.032 140.702C270.032 142.462 269.597 143.788 268.719 144.65Z" fill="#EEBA7C"></path><path d="M286.154 146.591C286.118 146.214 286.104 145.541 286.104 144.57C286.104 143.36 285.944 142.498 285.632 141.991C285.407 141.629 284.965 141.303 284.298 141.006C284.987 140.774 285.524 140.354 285.908 139.746C286.292 139.137 286.488 138.434 286.488 137.637C286.488 136.725 286.213 135.906 285.661 135.189C284.885 134.189 283.689 133.689 282.05 133.689H274.913V147.75H277.814V142.223H280.831C281.868 142.223 282.528 142.426 282.811 142.839C283.036 143.15 283.145 143.838 283.145 144.896C283.145 145.628 283.174 146.2 283.224 146.606C283.275 147.011 283.355 147.395 283.457 147.757H286.713V147.366C286.365 147.236 286.169 146.982 286.133 146.606L286.154 146.591ZM283.007 139.42C282.637 139.724 282.064 139.876 281.288 139.876H277.829V136.109H281.477C282.245 136.109 282.811 136.326 283.159 136.761C283.42 137.072 283.551 137.471 283.551 137.956C283.551 138.63 283.37 139.123 283 139.427L283.007 139.42Z" fill="#EEBA7C"></path><path d="M295.945 133.689H289.715V147.75H295.836C297.917 147.75 299.469 146.895 300.499 145.186C301.283 143.882 301.674 142.281 301.674 140.383C301.674 138.637 301.319 137.188 300.601 136.029C299.615 134.465 298.07 133.689 295.945 133.689ZM297.968 143.824C297.417 144.816 296.59 145.316 295.481 145.316H292.616V136.109H295.437C296.322 136.109 297.018 136.341 297.511 136.797C298.273 137.507 298.65 138.768 298.65 140.571C298.65 141.919 298.418 142.998 297.961 143.824H297.968Z" fill="#EEBA7C"></path><path d="M307.397 141.6H314.265V139.13H307.397V136.152H314.853V133.689H304.496V147.743H315.201V145.244H307.397V141.6Z" fill="#EEBA7C"></path><path d="M329.408 146.591C329.372 146.214 329.358 145.541 329.358 144.57C329.358 143.36 329.198 142.498 328.886 141.991C328.661 141.629 328.219 141.303 327.552 141.006C328.241 140.774 328.777 140.354 329.162 139.746C329.546 139.137 329.742 138.434 329.742 137.637C329.742 136.725 329.466 135.906 328.915 135.189C328.139 134.189 326.943 133.689 325.303 133.689H318.167V147.75H321.068V142.223H324.085C325.122 142.223 325.782 142.426 326.065 142.839C326.29 143.15 326.399 143.838 326.399 144.896C326.399 145.628 326.428 146.2 326.478 146.606C326.529 147.011 326.609 147.395 326.71 147.757H329.967V147.366C329.619 147.236 329.423 146.982 329.387 146.606L329.408 146.591ZM326.261 139.42C325.891 139.724 325.318 139.876 324.542 139.876H321.082V136.109H324.731C325.499 136.109 326.065 136.326 326.413 136.761C326.674 137.072 326.805 137.471 326.805 137.956C326.805 138.63 326.623 139.123 326.254 139.427L326.261 139.42Z" fill="#EEBA7C"></path><path d="M342.709 140.832C342.158 140.376 341.302 139.999 340.134 139.717L336.69 138.891C336.233 138.775 335.899 138.644 335.703 138.5C335.362 138.253 335.195 137.891 335.195 137.406C335.195 136.833 335.464 136.392 336.001 136.087C336.45 135.848 337.001 135.725 337.669 135.725C338.778 135.725 339.569 136 340.04 136.551C340.301 136.848 340.468 137.283 340.526 137.84H343.347C343.347 136.732 342.97 135.761 342.209 134.921C341.23 133.834 339.786 133.298 337.864 133.298C335.848 133.298 334.376 133.827 333.448 134.878C332.78 135.638 332.44 136.558 332.44 137.645C332.44 139.028 332.904 140.043 333.839 140.687C334.39 141.064 335.413 141.419 336.914 141.759L338.445 142.114C339.344 142.324 339.96 142.527 340.294 142.723C340.758 142.998 340.99 143.382 340.99 143.867C340.99 144.548 340.671 145.041 340.033 145.338C339.562 145.563 338.902 145.671 338.053 145.671C336.914 145.671 336.095 145.389 335.58 144.831C335.239 144.447 335.072 143.969 335.072 143.397H332.251C332.251 144.614 332.614 145.628 333.332 146.439C334.347 147.576 335.986 148.141 338.256 148.141C339.982 148.141 341.367 147.707 342.412 146.83C343.347 146.048 343.819 144.94 343.819 143.52C343.819 142.353 343.449 141.455 342.709 140.832Z" fill="#EEBA7C"></path><path d="M338.931 192.569H368.303V163.231H338.931V192.569ZM340.316 164.615H366.918V191.186H340.316V164.615Z" fill="#DEEDEB"></path><path d="M369.92 158.493C368.934 157.907 367.665 158.233 367.077 159.211L354.073 181.008L346.886 172.322C346.154 171.439 344.848 171.315 343.963 172.047C343.079 172.779 342.955 174.083 343.688 174.966L352.753 185.919C353.152 186.398 353.74 186.673 354.349 186.673C354.4 186.673 354.458 186.673 354.509 186.673C355.183 186.622 355.785 186.245 356.133 185.666L370.645 161.34C371.233 160.355 370.907 159.087 369.927 158.501L369.92 158.493Z" fill="#99B1DA"></path><path d="M324.664 167.563H259.421V170.424H324.664V167.563Z" fill="#EEBA7C"></path><path d="M319.551 180.349H259.421V183.21H319.551V180.349Z" fill="#EEBA7C"></path><path d="M301.95 173.952H259.421V176.814H301.95V173.952Z" fill="#EEBA7C"></path><path d="M241.29 168.621L241.892 170.931L244.815 170.12V183.543H247.643V167.23H245.649L241.29 168.621Z" fill="#231F20"></path><path d="M339.163 236.389H368.536V207.051H339.163V236.389ZM340.548 208.434H367.151V235.005H340.548V208.434Z" fill="#DEEDEB"></path><path d="M370.146 202.32C369.159 201.733 367.89 202.059 367.303 203.037L354.299 224.835L347.112 216.149C346.379 215.265 345.074 215.142 344.189 215.874C343.304 216.605 343.181 217.909 343.913 218.793L352.979 229.746C353.378 230.224 353.965 230.5 354.575 230.5C354.625 230.5 354.683 230.5 354.734 230.5C355.409 230.449 356.011 230.072 356.359 229.493L370.871 205.167C371.458 204.182 371.132 202.914 370.153 202.327L370.146 202.32Z" fill="#7CBFB6"></path><path d="M248.456 222.125C251.285 219.778 252.641 218.424 252.641 215.895C252.641 212.976 250.48 211.049 247.325 211.049C244.453 211.049 242.93 212.266 241.392 214.425L243.394 215.99C244.634 214.381 245.649 213.577 247.122 213.577C248.594 213.577 249.718 214.497 249.718 216.084C249.718 217.533 248.913 218.568 246.701 220.423L241.16 225.132V227.363H252.8V224.878H245.142L248.456 222.118V222.125Z" fill="#231F20"></path><path d="M328.517 211.382H259.959V214.244H328.517V211.382Z" fill="#EEBA7C"></path><path d="M328.525 217.779H309.835V220.64H328.525V217.779Z" fill="#EEBA7C"></path><path d="M304.649 217.779H259.959V220.64H304.649V217.779Z" fill="#EEBA7C"></path><path d="M339.163 280.534H368.536V251.196H339.163V280.534ZM340.548 252.579H367.151V279.151H340.548V252.579Z" fill="#DEEDEB"></path><path d="M370.146 246.465C369.159 245.879 367.89 246.205 367.303 247.182L354.299 268.98L347.112 260.294C346.379 259.41 345.074 259.287 344.189 260.019C343.304 260.751 343.181 262.055 343.913 262.938L352.979 273.891C353.378 274.369 353.965 274.645 354.575 274.645C354.625 274.645 354.683 274.645 354.734 274.645C355.409 274.594 356.011 274.217 356.359 273.638L370.871 249.312C371.458 248.327 371.132 247.059 370.153 246.473L370.146 246.465Z" fill="#7CBFB6"></path><path d="M328.517 255.528H259.959V258.389H328.517V255.528Z" fill="#EEBA7C"></path><path d="M304.649 261.924H259.959V264.785H304.649V261.924Z" fill="#EEBA7C"></path><path d="M247.876 261.917L252.264 257.418V255.346H241.842V257.751H248.659L244.402 262.272L244.852 264.003H246.135C248.34 264.003 249.762 264.88 249.762 266.43C249.762 267.98 248.594 268.857 247.035 268.857C245.28 268.857 244.018 268.118 242.893 266.785L240.957 268.581C242.284 270.197 244.242 271.349 246.991 271.349C250.255 271.349 252.503 269.277 252.503 266.379C252.503 263.482 250.364 262.265 247.869 261.902L247.876 261.917Z" fill="#231F20"></path><path d="M434.679 320.587C439.473 316.972 445.674 319.478 453.535 313.77C461.39 308.069 454.87 289.575 454.87 289.575C451.236 295.544 439.828 300.702 437.957 299.282C436.086 297.862 449.525 286.315 451.142 283.968C452.752 281.621 452.723 274.29 443.164 267.995C433.606 261.7 421.915 276.615 421.915 276.615C421.915 276.615 425.229 299.463 422.77 302.245C420.312 305.026 416.12 283.258 416.12 283.258C410.311 287.459 402.471 306.033 402.471 306.033C402.471 306.033 418.267 322.166 415.206 324.252C412.138 326.346 401.948 309.257 401.948 309.257C398.141 315.378 398.648 325.672 398.648 325.672C401.296 340.827 420.638 336.647 420.638 336.647L427.63 339.689C434.621 342.732 447.458 332.931 452.97 325.614C458.482 318.298 453.869 318.993 447.523 319.109C441.177 319.232 434.302 326.737 430.995 327.512C427.688 328.287 429.9 324.187 434.686 320.572L434.679 320.587Z" fill="#231F20"></path><path d="M420.638 336.661C420.638 336.661 425.99 342.37 428.311 352.287L430.596 354.873C430.596 354.873 426.621 342.732 427.622 339.704C427.622 339.704 409.455 335.48 439.059 276.224C439.059 276.224 413.19 319.913 420.631 336.668L420.638 336.661Z" fill="#DEEDEB"></path><path d="M372.017 359.763L370.298 363.045L369 364.645L377.957 371.049L382.816 363.052L382.555 360.132L372.017 359.763Z" fill="white" stroke="#231F20" stroke-miterlimit="10"></path><path d="M382.708 363.008C381.721 363.82 378.523 366.949 376.376 365.428C372.75 362.871 369.66 362.929 369.66 362.929L353.096 370.064C352.827 370.173 352.653 370.477 352.66 370.825L352.711 373.041C352.718 373.483 353.023 373.838 353.386 373.838H384.528L383.208 363.284C383.172 362.994 382.896 362.842 382.7 363.008H382.708Z" fill="#231F20"></path><path d="M422.966 359.806L421.175 363.073L419.848 364.674L428.587 371.056L433.62 363.081L432.605 358.452L422.966 359.806Z" fill="white" stroke="#231F20" stroke-miterlimit="10"></path><path d="M433.519 363.037C432.518 363.848 429.262 366.963 427.158 365.449C423.619 362.899 420.544 362.957 420.544 362.957L403.885 370.078C403.617 370.187 403.436 370.491 403.436 370.832V373.041C403.436 373.483 403.718 373.838 404.081 373.838H435.064L434.019 363.312C433.99 363.023 433.722 362.87 433.519 363.037Z" fill="#231F20"></path><path d="M366.716 289.546C366.534 302.868 370.095 360.241 370.095 360.241L386.856 360.531C386.856 360.531 398.54 262.583 415.83 229.058L370.443 225.747C370.443 225.747 366.904 276.057 366.716 289.553V289.546Z" fill="#231F20"></path><path d="M416.939 287.054C416.185 273.522 419.303 245.669 420.703 227.428L372.452 225.733C372.452 225.733 373.953 237.975 376.854 251.341C380.038 266.039 384.295 282.092 389.445 296.949C397.321 319.66 415.46 361.552 415.46 361.552L434.157 361.125L418.535 297.551C417.672 294.124 417.142 290.611 416.946 287.061L416.939 287.054Z" fill="#231F20"></path><path d="M326.675 125.33C325.551 127.068 325.913 133.182 325.326 132.429C324.47 131.328 319.357 121.034 318.189 121.201C317.022 121.36 321.134 128.104 320.67 128.075C320.205 128.046 315.15 119.194 314.295 119.542C312.931 120.092 318.661 129.068 318.24 129.184C317.812 129.299 313.439 122.041 312.88 122.381C311.778 123.055 315.339 129.126 315.912 130.48C315.912 130.48 312.322 125.272 311.415 125.801C310.487 126.351 320.307 142.998 320.307 142.998C320.307 142.998 326.617 156.255 329.946 162.441L340.759 154.292C340.759 154.292 330.323 138.768 329.402 136.341C329.402 136.341 327.799 123.598 326.675 125.337V125.33Z" fill="white" stroke="#231F20" stroke-miterlimit="10"></path><path d="M347.699 162.093L334.891 142.824L323.026 152.937C323.026 152.937 334.587 188.723 349.571 187.093C364.554 185.47 386.972 170.685 386.972 170.685L395.987 139.912C395.987 139.912 389.285 142.252 379.973 145.352C370.661 148.46 347.699 162.086 347.699 162.086V162.093Z" fill="#DEEDEB" stroke="#231F20" stroke-miterlimit="10"></path><path d="M322.135 153.227L325.971 162.651L341.151 151.242L335.414 142.136L322.135 153.227Z" fill="#DEEDEB" stroke="#231F20" stroke-miterlimit="10"></path><path d="M391.831 141.354C390.315 141.875 388.429 142.52 386.268 143.252C383.947 145.2 379.197 151.097 377.5 154.045C375.317 157.841 369.181 173.119 369.188 177.531L371.451 181.406C379.081 177.451 386.972 170.692 386.972 170.692L394.434 145.215L392.041 145.447L391.831 141.354Z" fill="#ABC4BF"></path><path d="M413.806 142.114L407.482 137.652L407.533 138.007L399.613 146.323L394.253 146.569V141.926L389.641 143.512C388.19 143.693 383.447 149.778 381.264 153.183C378.9 156.87 375.868 165.585 375.658 169.982L370.443 225.74L420.703 227.42C420.703 227.42 432.909 180.761 432.22 163.462C431.771 152.227 413.813 142.114 413.813 142.114H413.806Z" fill="white"></path><path d="M371.778 180.537C371.778 193.033 367.463 231.369 367.463 231.369L372.206 230.941C372.206 230.941 375.223 195.836 377.384 176.879C379.538 157.921 388.814 145.649 388.814 145.649L389.032 142.201C380.409 148.235 371.778 168.048 371.778 180.537Z" fill="#DEEDEB" stroke="#231F20" stroke-miterlimit="10"></path><path d="M416.359 142.802C411.282 147.417 400.505 151.416 400.505 151.416C400.505 151.416 393.419 172.829 392.194 181.899C390.961 190.968 389.604 232.948 389.604 232.948L425.686 234.172C425.686 234.172 434.374 171.714 434.831 163.26C435.295 154.806 429.907 145.265 416.359 142.81V142.802Z" fill="#DEEDEB" stroke="#231F20" stroke-miterlimit="10"></path><path d="M417.172 167.186C413.734 174.546 402.449 195.148 395.951 206.608C395.603 211.527 395.277 216.228 395.001 220.227C397.641 223.581 401.963 226.718 408.44 225.015C419.116 222.212 429.298 194.069 433.062 179.095C433.548 175.256 433.961 171.822 434.273 169.084C432.554 160.818 421.096 158.783 417.172 167.186Z" fill="#231F20"></path><path d="M425.345 148.17C419.862 147.033 413.77 154.603 413.77 154.603L388.677 196.561L387.219 213.519C401.071 221.321 406.982 212.034 412.61 205.464C422.016 194.489 427.862 184.789 430.959 176.582C431.851 170.026 432.373 164.259 432.213 160.377C432.032 155.929 428.942 151.669 425.345 148.17Z" fill="#ABC4BF"></path><path d="M364.598 154.089C364.242 152.191 363.387 150.8 362.27 150.3C362.27 150.3 342.877 145.056 336.168 143.723C334.108 143.31 332.933 144.983 333.608 148.084L340.36 182.363C340.817 184.623 341.81 186.303 343.101 186.991L369.957 195.75C372.655 196.235 372.177 193.989 372.003 193.098L364.598 154.089Z" fill="#231F20"></path><path d="M362.103 151.075L333.637 143.723C331.331 143.534 331.541 145.773 331.983 147.569L339.258 182.877C339.802 185.246 340.186 186.325 341.586 187.144C346.481 189.99 372.141 197.894 372.003 197.191L363.887 153.98C363.604 152.531 362.952 151.474 362.103 151.068V151.075Z" fill="white" stroke="#231F20" stroke-miterlimit="10"></path><path d="M373.671 183.71C372.662 180.776 368.927 176.821 368.927 176.821C369.196 178.306 369.994 181.312 368.659 181.167C368.05 181.102 366.773 181.334 363.974 179.385C362.436 178.313 357.352 171.945 356.177 172.127C355.003 172.315 361.74 181.37 361.45 181.609C361.16 181.848 358.273 179.385 357.236 178.61C355.931 177.639 351.71 174.655 351.536 175.749C351.369 176.842 361.863 185.521 359.753 183.804C359.615 183.688 351.681 176.589 351.086 178.038C350.687 179.001 357.911 185.238 358.056 185.644C358.201 186.042 352.471 180.001 351.949 181.182C351.724 181.696 354.531 184.76 355.561 185.673C357.36 187.267 366.824 196.286 383.614 207.775L388.676 196.561L374.526 187.216C374.526 187.216 374.2 185.253 373.671 183.71Z" fill="white" stroke="#231F20" stroke-miterlimit="10"></path><path d="M426.237 148.026C419.942 144.179 413.096 154.944 413.096 154.944L393.565 195.069L378.777 185.159L368.377 203.066L392.528 217.902C407.091 224.566 412.052 214.475 416.998 207.195C438.828 175.097 436.891 154.531 426.237 148.026Z" fill="#DEEDEB" stroke="#231F20" stroke-miterlimit="10"></path><path d="M367.746 203.334L376.942 209.296L385.645 188.687L378.864 184.449L367.746 203.334Z" fill="#DEEDEB" stroke="#231F20" stroke-miterlimit="10"></path><path d="M394 139.985L392.637 142.143C396.132 147.758 408.425 142.397 409.013 136.181C403.784 133.929 394.007 139.985 394.007 139.985H394Z" fill="#57935E"></path><path d="M406.387 138.007L395.937 148.207C397.764 153.104 397.518 164.1 397.518 164.1C410.304 159.341 416.671 144.845 417.651 143.447C416.004 142.484 406.329 137.659 406.329 137.659L406.387 138.014V138.007Z" fill="#231F20"></path><path d="M385.84 151.821L393.521 145.881L394.391 139.97C392.048 140.397 388.219 141.274 385.086 141.832C385.739 143.788 384.578 148.38 385.84 151.821Z" fill="#231F20"></path><path d="M386.486 149.605L393.811 144.94L394.384 138.775L385.035 141.115C385.035 141.115 385.289 144.367 386.493 149.605H386.486Z" fill="#DEEDEB" stroke="#231F20" stroke-miterlimit="10"></path><path d="M392.999 133.755C392.999 133.755 392.991 133.762 392.97 133.784C393.47 133.711 393.891 133.632 394.166 133.595C394.268 132.871 394.435 139.231 393.463 144.541C392.448 150.105 399.026 149.996 402.514 145.352L407.787 139.014C407.787 139.014 406.604 130.14 406.314 126.677L392.999 133.747V133.755Z" fill="white" stroke="#231F20" stroke-miterlimit="10"></path><path d="M394.058 140.47C395.196 140.977 399.301 140.919 403.624 131.56C398.264 132.958 395.892 135.551 394.21 136.145C394.246 137.319 394.232 138.84 394.058 140.47Z" fill="#231F20"></path><path d="M402.681 104.814C395.32 103.605 390.7 105.85 388.415 113.406C388.299 113.79 388.212 114.181 388.118 114.565C387.668 116.398 387.306 118.636 387.792 119.672C387.792 119.672 384.441 131.328 390.105 137.188C390.99 138.108 396.72 138.441 397.894 138.195C405.684 136.58 406.576 124.765 406.576 124.765C406.8 124.105 410.47 123.859 410.681 123.178C412.697 116.644 411.689 106.292 402.696 104.807L402.681 104.814Z" fill="white" stroke="#231F20" stroke-miterlimit="10"></path><path d="M391.339 130.002L391.172 130.401C391.223 130.422 391.781 130.64 392.666 130.676C393.913 130.727 395.799 130.408 397.844 128.655L397.561 128.329C394.276 131.147 391.36 130.009 391.331 130.002H391.339Z" fill="#2B2B2B"></path><path d="M401.695 117.34C401.565 117.274 398.41 116.115 397.83 116.789C397.597 117.057 397.605 117.571 397.83 117.905C398.214 118.47 399.004 118.158 400.919 118.528C401.818 118.702 402.181 118.875 402.261 118.745C402.391 118.52 402.689 117.854 401.702 117.347L401.695 117.34Z" fill="#2F2F2F"></path><path d="M389.467 116.028C388.604 116.275 388.459 116.992 388.488 117.209C388.509 117.332 388.821 117.26 389.525 117.282C391.026 117.34 391.527 117.76 391.962 117.354C392.216 117.115 392.361 116.666 392.266 116.391C392.027 115.695 389.576 116 389.46 116.028H389.467Z" fill="#2F2F2F"></path><path d="M399.019 120.317C398.707 120.237 398.352 120.563 398.228 121.049C398.098 121.534 398.25 121.998 398.562 122.077C398.874 122.157 399.229 121.831 399.353 121.346C399.483 120.86 399.331 120.397 399.019 120.317Z" fill="#2B2B2B"></path><path d="M389.866 119.158C389.583 119.085 389.249 119.419 389.126 119.904C389.003 120.389 389.126 120.838 389.409 120.918C389.692 120.991 390.025 120.657 390.148 120.172C390.279 119.687 390.148 119.238 389.866 119.158Z" fill="#2B2B2B"></path><path d="M404.204 100.729C397.757 100.287 397.604 103.532 389.489 104.293C383.991 104.807 388.415 113.413 388.415 113.413C388.851 111.559 390.026 110.197 390.026 110.197C393.05 114.065 405.734 112.529 405.734 112.529L406.119 123.99L406.692 127.054L406.402 127.764C407.011 129.292 408.476 129.56 409.281 128.126C411.798 123.627 413.894 117.448 414.3 115.203C415.815 106.872 410.811 101.185 404.211 100.729H404.204Z" fill="#231F20"></path><path d="M406.938 111.849C393.775 111.508 389.888 107.763 389.888 107.763C389.888 107.763 389.975 113.536 406.938 111.849Z" fill="white"></path><path d="M405.386 128.503C405.785 128.923 406.278 129.249 406.851 129.43C408.824 130.06 410.992 128.8 411.696 126.612C412.392 124.424 411.355 122.142 409.382 121.512C407.852 121.027 406.206 121.671 405.212 123.004" fill="white"></path><path d="M405.386 128.503C405.785 128.923 406.278 129.249 406.851 129.43C408.824 130.06 410.992 128.8 411.696 126.612C412.392 124.424 411.355 122.142 409.382 121.512C407.852 121.027 406.206 121.671 405.212 123.004" stroke="#231F20" stroke-linecap="round" stroke-linejoin="round"></path><path d="M393.638 122.012L393.558 121.592C393.108 121.679 390.845 122.135 390.497 122.881C390.417 123.048 390.425 123.222 390.519 123.381C391.019 124.265 392.231 124.997 392.281 125.025L392.499 124.656C392.499 124.656 391.331 123.953 390.889 123.171C390.86 123.128 390.867 123.099 390.889 123.062C391.077 122.657 392.615 122.2 393.645 122.012H393.638Z" fill="#2B2B2B"></path><path opacity="0.3" d="M393.557 118.723C393.05 118.658 392.738 118.803 392.542 118.6C392.542 118.6 392.665 118.839 392.803 118.854C392.941 118.868 393.282 118.868 393.528 118.897C393.775 118.926 394.109 119.02 394.254 119.035C394.399 119.049 394.602 118.854 394.602 118.854C394.333 118.999 394.072 118.788 393.557 118.73V118.723Z" fill="white"></path><path d="M403.384 140.789C400.346 143.969 395.929 148.207 395.929 148.207C397.756 153.104 399.2 158.834 399.2 158.834C413.052 153.683 417.65 143.447 417.65 143.447L409.012 136.181C409.012 136.181 406.43 137.608 403.384 140.789Z" fill="#DEEDEB" stroke="#231F20" stroke-miterlimit="10"></path><path d="M341.862 149.112L349.745 151.032L350.115 147.359L340.411 144.903L341.862 149.112Z" fill="#231F20"></path><path d="M349.542 146.946L351.914 147.569L351.906 147.091L349.542 146.946Z" fill="#231F20"></path><path d="M340.396 144.903L350.115 147.359L351.906 147.091L342.521 144.737L340.396 144.903Z" fill="#231F20"></path><path d="M299.934 301.419H246.048V360.096H299.934V301.419Z" fill="white" stroke="#231F20" stroke-miterlimit="10"></path><path d="M246.041 301.419H216.204V360.096H246.041V301.419Z" fill="#65ADA3" stroke="#231F20" stroke-miterlimit="10"></path><path d="M276.537 301.419H269.444V313.466H276.537V301.419Z" fill="#DEEDEB" stroke="#231F20" stroke-miterlimit="10"></path><path d="M71.1608 302.723C71.1608 302.723 68.9706 325.658 64.7278 324.991C60.4779 324.317 69.0141 299.608 69.0141 299.608C69.0141 299.608 51.5863 284.048 43.42 282.526C43.42 282.526 49.8384 307.388 45.8858 305.693C41.9332 303.998 34.057 278.441 34.057 278.441C34.057 278.441 14.4099 268.618 7.5273 279.94C0.644673 291.263 4.24917 298.956 7.10666 300.615C9.95689 302.267 29.7635 307.7 28.5088 310.112C27.2541 312.524 12.7491 312.778 5.98252 308.33C5.98252 308.33 8.33958 330.91 19.3924 332.989C30.4525 335.068 35.7033 329.374 42.5134 330.786C49.3235 332.199 53.675 335.394 49.8239 336.22C45.9729 337.053 35.0506 332.597 28.3493 335.611C21.6479 338.632 16.4769 340.189 25.8762 345.115C35.2754 350.041 53.5807 353.939 59.39 347.296L65.1993 340.653C65.1993 340.653 87.5225 335.444 82.7721 318.269C82.7721 318.269 78.1885 307.243 71.1681 302.723H71.1608Z" fill="#231F20"></path><path d="M15.8896 286.511C76.3103 333.88 59.3902 347.296 59.3902 347.296C61.9503 349.976 65.1995 340.653 65.1995 340.653C64.67 319.428 15.8969 286.511 15.8969 286.511H15.8896Z" fill="#DEEDEB"></path><path d="M116.845 290.096H57.9834V348.889H116.845V290.096Z" fill="white" stroke="#231F20" stroke-miterlimit="10"></path><path d="M109.164 231.303H50.3027V290.096H109.164V231.303Z" fill="white" stroke="#231F20" stroke-miterlimit="10"></path><path d="M84.484 231.303H74.9688V237.729H84.484V231.303Z" fill="#DEEDEB" stroke="#231F20" stroke-miterlimit="10"></path><path d="M57.9834 300.803L109.157 290.096H57.9834V300.803Z" fill="#231F20"></path><path d="M131.655 231.303H109.157V290.096H131.655V231.303Z" fill="#7CBFB6" stroke="#231F20" stroke-miterlimit="10"></path><path d="M139.117 290.096H116.62V348.889H139.117V290.096Z" fill="#7CBFB6" stroke="#231F20" stroke-miterlimit="10"></path><path d="M184.982 137.442H115.104V213.527H184.982V137.442Z" fill="white" stroke="#231F20" stroke-miterlimit="10"></path><path d="M223.682 137.442H184.997V213.526H223.682V137.442Z" fill="#7CBFB6" stroke="#231F20" stroke-miterlimit="10"></path><path d="M156.72 137.442H143.375V170.873H156.72V137.442Z" fill="#231F20"></path><path d="M210.157 137.442H200.953V145.084H210.157V137.442Z" fill="#383838"></path><path d="M192.308 140.572C192.308 153.922 203.114 164.028 216.408 163.137C218.946 162.97 221.39 162.405 223.682 161.521V137.435H192.511C192.38 138.463 192.308 139.507 192.308 140.564V140.572Z" fill="#231F20"></path><path d="M199.734 213.519H129.856V289.604H199.734V213.519Z" fill="white" stroke="#231F20" stroke-miterlimit="10"></path><path d="M238.434 213.519H199.749V289.604H238.434V213.519Z" fill="#7CBFB6" stroke="#231F20" stroke-miterlimit="10"></path><path d="M224.908 213.519H215.704V289.597H224.908V213.519Z" fill="#EEBA7C"></path><path d="M129.856 227.725L184.997 213.519H129.856V227.725Z" fill="#231F20"></path><path d="M170.746 213.519H158.845V289.633H170.746V213.519Z" fill="#EEBA7C"></path><path d="M192.024 289.597H122.146V365.681H192.024V289.597Z" fill="white" stroke="#231F20" stroke-miterlimit="10"></path><path d="M230.724 289.597H192.039V365.681H230.724V289.597Z" fill="#7CBFB6" stroke="#231F20" stroke-miterlimit="10"></path><path d="M165.365 289.597H148.814V321.637H165.365V289.597Z" fill="#F3CE90"></path><path d="M220.179 289.597H205.007V312.647H220.179V289.597Z" fill="#EEBA7C"></path><path d="M122.146 303.802L177.287 289.597H122.146V303.802Z" fill="#231F20"></path><path d="M217.437 108.763C204.143 109.567 193.337 121.049 193.337 134.399C193.337 147.75 204.143 157.856 217.437 156.965C230.68 156.081 241.385 144.606 241.385 131.342C241.385 118.079 230.68 107.966 217.437 108.77V108.763Z" fill="white" stroke="#231F20" stroke-miterlimit="10"></path><path d="M228.656 118.376C227.199 117.716 225.407 118.412 224.667 119.926L216.378 136.783L210.097 126.699C209.249 125.337 207.421 124.997 206.007 125.931C204.592 126.873 204.136 128.735 204.984 130.097L214.042 144.621C214.579 145.483 215.551 145.968 216.595 145.903C216.632 145.903 216.668 145.903 216.697 145.896C217.778 145.787 218.749 145.099 219.243 144.099L229.954 122.295C230.694 120.781 230.114 119.028 228.656 118.368V118.376Z" fill="#DEEDEB" stroke="#231F20" stroke-miterlimit="10"></path><path d="M118.987 112.566L52.5804 129.412C50.7713 129.871 49.6771 131.708 50.1366 133.515L55.7154 155.456C56.1749 157.263 58.0139 158.356 59.823 157.897L126.229 141.051C128.038 140.592 129.133 138.755 128.673 136.948L123.094 115.007C122.635 113.2 120.796 112.107 118.987 112.566Z" fill="#231F20"></path><path d="M117.257 110.835L50.8509 127.68C49.0418 128.139 47.9477 129.976 48.4071 131.783L53.986 153.724C54.4454 155.531 56.2844 156.624 58.0936 156.165L124.5 139.32C126.309 138.861 127.403 137.024 126.944 135.217L121.365 113.276C120.905 111.469 119.066 110.376 117.257 110.835Z" fill="white" stroke="#231F20" stroke-miterlimit="10"></path><path d="M116.145 116.158L54.3643 131.831L55.2729 135.404L117.054 119.732L116.145 116.158Z" fill="#231F20"></path><path d="M118.111 123.877L56.3301 139.549L57.2388 143.123L119.02 127.451L118.111 123.877Z" fill="#231F20"></path><path d="M99.3063 136.868L58.29 147.273L59.1987 150.847L100.215 140.442L99.3063 136.868Z" fill="#231F20"></path><path d="M489.895 218.264L437.927 232.357C437.003 232.607 436.457 233.559 436.708 234.481L441.626 252.574C441.877 253.497 442.829 254.042 443.753 253.791L495.722 239.698C496.645 239.447 497.191 238.496 496.94 237.573L492.022 219.481C491.771 218.558 490.819 218.013 489.895 218.264Z" fill="#231F20"></path><path d="M486.608 216.365L435.612 230.195C434.225 230.571 433.405 232 433.782 233.386L438.363 250.242C438.74 251.628 440.171 252.446 441.558 252.07L492.554 238.24C493.942 237.864 494.761 236.435 494.384 235.049L489.803 218.194C489.426 216.808 487.996 215.989 486.608 216.365Z" fill="white" stroke="#231F20" stroke-miterlimit="10"></path><path d="M485.816 220.486L438.376 233.351L439.121 236.091L486.561 223.226L485.816 220.486Z" fill="#EEBA7C"></path><path d="M487.432 226.411L439.992 239.276L440.737 242.017L488.177 229.151L487.432 226.411Z" fill="#EEBA7C"></path><path d="M473.095 236.672L441.605 245.211L442.35 247.952L473.839 239.412L473.095 236.672Z" fill="#EEBA7C"></path><path d="M23.221 238.798L19.5019 253.991C19.1956 255.242 19.9629 256.504 21.2157 256.81L67.1912 268.039C68.4441 268.345 69.708 267.579 70.0144 266.327L73.7334 251.135C74.0398 249.883 73.2725 248.621 72.0196 248.315L26.0442 237.086C24.7913 236.78 23.5273 237.547 23.221 238.798Z" fill="#231F20"></path><path d="M22.1878 237.413L18.4687 252.605C18.1624 253.857 18.9297 255.119 20.1825 255.425L66.158 266.654C67.4109 266.96 68.6748 266.193 68.9811 264.942L72.7002 249.749C73.0066 248.498 72.2393 247.236 70.9864 246.93L25.011 235.701C23.7581 235.395 22.4941 236.161 22.1878 237.413Z" fill="white" stroke="#231F20" stroke-miterlimit="10"></path><path d="M25.8134 239.365L25.207 241.842L67.977 252.287L68.5834 249.811L25.8134 239.365Z" fill="#EEBA7C"></path><path d="M24.4999 244.712L23.8936 247.188L66.6635 257.634L67.2699 255.157L24.4999 244.712Z" fill="#EEBA7C"></path><path d="M23.1894 250.062L22.583 252.539L50.9742 259.473L51.5806 256.996L23.1894 250.062Z" fill="#EEBA7C"></path><path d="M125.572 104.649C136.714 102.023 143.614 90.872 140.984 79.7435C138.354 68.615 127.191 61.7228 116.049 64.3494C104.908 66.976 98.0077 78.1267 100.637 89.2552C103.267 100.384 114.431 107.276 125.572 104.649Z" fill="white" stroke="#231F20" stroke-miterlimit="10"></path><path d="M124.141 80.996L120.812 74.259L117.476 80.996L110.027 82.0754L115.416 87.3273L114.147 94.738L120.812 91.2391L127.47 94.738L126.2 87.3273L131.589 82.0754L124.141 80.996Z" fill="#EEBA7C"></path><path d="M453.465 154.287C460.75 153.923 466.361 147.73 465.997 140.454C465.633 133.177 459.432 127.573 452.147 127.937C444.863 128.3 439.252 134.494 439.616 141.77C439.98 149.046 446.181 154.65 453.465 154.287Z" fill="white" stroke="#231F20" stroke-miterlimit="10"></path><path d="M457.067 135.37L446.674 145.497C446.232 145.932 446.225 146.635 446.652 147.077C446.87 147.301 447.16 147.417 447.457 147.417C447.755 147.417 448.023 147.308 448.241 147.098L458.634 136.971C459.076 136.536 459.083 135.834 458.655 135.392C458.227 134.95 457.517 134.943 457.074 135.37H457.067Z" fill="#EEBA7C"></path><path d="M451.435 137.392C451.472 136.049 450.412 134.929 449.066 134.892C447.721 134.854 446.6 135.914 446.563 137.257C446.525 138.601 447.586 139.721 448.931 139.758C450.276 139.795 451.397 138.736 451.435 137.392Z" fill="#EEBA7C"></path><path d="M456.821 142.448C455.472 142.448 454.384 143.534 454.384 144.882C454.384 146.229 455.479 147.316 456.821 147.316C458.162 147.316 459.257 146.229 459.257 144.882C459.257 143.534 458.162 142.448 456.821 142.448Z" fill="#EEBA7C"></path><path d="M272.352 130.591C280.196 129.816 285.926 122.836 285.15 115C284.374 107.165 277.386 101.442 269.541 102.217C261.697 102.992 255.967 109.972 256.743 117.807C257.519 125.643 264.507 131.366 272.352 130.591Z" fill="#EEBA7C"></path><path d="M279.598 110.349C278.387 109.944 273.209 111.429 269.619 116.007C267.189 119.107 261.264 120.179 261.395 121.396C261.532 122.606 264.223 122.476 268.538 122.476C272.854 122.476 274.065 115.471 275.95 116.014C277.836 116.55 276.893 122.476 276.893 122.476H278.917C278.917 122.476 279.729 116.956 280.266 114.529C280.802 112.102 280.316 110.596 279.591 110.357L279.598 110.349Z" fill="white"></path><path d="M14.0188 198.589C6.47617 198.589 0.362305 204.696 0.362305 212.23C0.362305 219.764 6.47617 225.871 14.0188 225.871C21.5614 225.871 27.6753 219.764 27.6753 212.23C27.6753 204.696 21.5614 198.589 14.0188 198.589Z" fill="white" stroke="#231F20" stroke-miterlimit="10"></path><path d="M22.0474 205.935H5.99034C5.34486 205.935 4.81543 206.456 4.81543 207.108V217.359C4.81543 218.003 5.33761 218.532 5.99034 218.532H22.0474C22.6929 218.532 23.2223 218.003 23.2223 217.359V207.108C23.2223 206.464 22.7001 205.935 22.0474 205.935ZM20.8725 216.185H7.16524V208.282H20.8725V216.185Z" fill="#EEBA7C"></path><path d="M14.229 211.81L6.70093 206.167L5.29395 208.043L13.5473 214.229C13.7576 214.389 14.0042 214.461 14.2508 214.461C14.4974 214.461 14.7657 214.374 14.9833 214.208L22.7797 208.021L21.322 206.181L14.229 211.803V211.81Z" fill="#EEBA7C"></path></g><defs><clipPath id="clip0_98_1196"><rect width="497" height="388" fill="white"></rect></clipPath></defs></svg>